<svg width="1093" height="314" viewBox="0 0 1093 314" fill="none" xmlns="http://www.w3.org/2000/svg">
<g clip-path="url(#clip0_1_2)">
<path d="M8 18.1513C9.76422 18.2374 9.21394 19.6434 9.21462 20.7337C9.23079 46.7511 9.22938 72.7685 9.22561 98.7859C9.22471 105.034 9.20454 111.282 9.18724 117.53C9.18699 117.621 9.10819 117.711 9.06737 117.803C8.83293 118.328 8.61801 117.823 8.1971 118.005C8 84.9597 8 51.6998 8 18.1513Z" fill="#BFBFBF"/>
<path d="M278.45 314.616C278.731 313.765 279.617 314.012 280.398 314.012C294.296 313.999 308.194 314.002 322.093 314.012C322.493 314.013 322.894 314.13 323.448 314.404C308.647 314.616 293.692 314.616 278.45 314.616Z" fill="#3F3F3F"/>
<path d="M820.652 314.616C820.771 313.747 821.557 314.003 822.237 314.003C836.045 314 849.853 314.003 863.66 314.016C864.06 314.017 864.459 314.147 865.024 314.416C850.439 314.616 835.689 314.616 820.652 314.616Z" fill="#404040"/>
<path d="M602.052 314.616C602.332 313.766 603.218 314.012 603.998 314.012C617.686 314 631.375 314.003 645.063 314.015C645.462 314.015 645.86 314.146 646.424 314.416C631.839 314.616 617.09 314.616 602.052 314.616Z" fill="#3F3F3F"/>
<path d="M516.7 314.616C516.849 313.802 517.625 314.005 518.312 314.005C532.111 314 545.91 314.002 559.709 314.015C560.109 314.015 560.508 314.146 561.072 314.416C546.487 314.616 531.737 314.616 516.7 314.616Z" fill="#3F3F3F"/>
<path d="M437.488 314.616C437.769 313.765 438.655 314.012 439.435 314.012C453.129 313.999 466.823 314.002 480.516 314.012C480.917 314.013 481.317 314.13 481.872 314.404C467.275 314.616 452.525 314.616 437.488 314.616Z" fill="#3F3F3F"/>
<path d="M198.624 314.616C198.774 313.802 199.55 314.005 200.236 314.005C214.036 314 227.835 314.002 241.634 314.015C242.033 314.015 242.432 314.146 242.997 314.416C228.412 314.616 213.662 314.616 198.624 314.616Z" fill="#3F3F3F"/>
<path d="M901.092 314.616C901.373 313.765 902.259 314.012 903.039 314.012C916.528 313.999 930.017 314.002 943.506 314.012C943.907 314.013 944.307 314.13 944.861 314.404C930.47 314.616 915.925 314.616 901.092 314.616Z" fill="#3F3F3F"/>
<path d="M104.061 314.616C103.972 313.991 104.488 314.002 104.996 314.004C116.583 314.05 128.169 314.097 139.879 314.38C128.118 314.616 116.233 314.616 104.061 314.616Z" fill="#414141"/>
<path d="M26.4243 18.3799C33.2787 18.3799 39.8305 18.5076 46.3732 18.3183C49.066 18.2404 50.3804 18.838 49.8886 21.7646C49.7834 22.391 49.5976 23.1638 50.2561 23.931C57.619 18.534 66.1679 18.3045 74.78 18.3991C79.6328 18.4524 83.7397 20.2255 86.9025 23.9645C87.8869 25.1284 88.556 25.7522 89.9818 24.3017C92.9326 21.2998 96.6757 19.7332 100.809 19.004C106.094 18.0717 111.435 18.0792 116.71 18.5648C125.2 19.3466 130.294 25.2876 130.295 33.7498C130.297 60.628 130.244 87.5064 130.372 114.384C130.386 117.211 129.566 117.716 126.976 117.667C118.282 117.501 109.582 117.524 100.887 117.659C98.6985 117.693 98.2076 117.066 98.2151 114.937C98.2948 92.1623 98.2063 69.3872 98.3375 46.6134C98.3541 43.728 97.5262 42.7659 94.7929 43.1878C93.9933 43.3112 93.1469 43.2967 92.3426 43.1896C90.3525 42.9247 89.931 43.8842 89.9723 45.6814C90.0735 50.0904 90.005 54.5033 90.005 58.9146C90.0049 77.4831 89.9599 96.0518 90.06 114.62C90.073 117.029 89.4514 117.706 87.0254 117.664C78.229 117.512 69.4261 117.496 60.6306 117.672C58.1037 117.723 57.6807 116.886 57.6889 114.592C57.7696 92.0224 57.6547 69.4522 57.8297 46.8842C57.855 43.6103 56.8558 42.7158 53.9232 43.1953C53.4249 43.2767 52.8924 43.2706 52.392 43.1957C50.3669 42.8928 49.7975 43.7319 49.8123 45.7516C49.9002 57.7538 49.8557 69.7569 49.8556 81.7598C49.8556 92.7367 49.7679 103.715 49.9217 114.69C49.957 117.212 49.1532 117.69 46.8444 117.656C38.0473 117.527 29.2463 117.541 20.4486 117.651C18.4009 117.676 17.664 117.288 17.6699 115.019C17.7503 83.7295 17.7541 52.4399 17.665 21.1507C17.6582 18.7545 18.3791 18.1237 20.5973 18.3431C22.421 18.5236 24.2766 18.3799 26.4243 18.3799Z" fill="#FEAB00"/>
<path d="M1019.61 3.7047C1019.61 0.730942 1019.67 -1.9379 1019.58 -4.60161C1019.53 -6.21176 1020.14 -6.70705 1021.73 -6.69685C1031.14 -6.63647 1040.55 -6.60185 1049.96 -6.71235C1052.31 -6.73998 1051.98 -5.35258 1051.98 -3.93139C1051.98 7.55586 1051.98 19.0431 1051.98 30.5304C1051.98 58.5305 1051.94 86.5308 1052.04 114.531C1052.05 117.162 1051.31 117.681 1048.82 117.665C1031.02 117.552 1013.22 117.607 995.426 117.6C994.302 117.6 993.171 117.604 992.055 117.489C983.099 116.568 979.534 112.698 979.524 103.741C979.497 80.0483 979.499 56.3558 979.522 32.6634C979.531 22.9841 983.764 18.612 993.538 18.4155C1001.31 18.2592 1009.09 18.3134 1016.86 18.4227C1018.95 18.4521 1019.75 17.9089 1019.65 15.702C1019.49 11.8116 1019.61 7.90916 1019.61 3.7047Z" fill="#FDAA00"/>
<path d="M677.313 117.606C672.922 117.622 668.817 117.828 664.883 116.362C660.563 114.751 657.823 111.759 657.617 107.061C657.037 93.8411 657.074 80.6056 657.567 67.3887C657.824 60.5127 661.31 57.1122 668.176 56.0636C675.601 54.9296 683.088 55.6604 690.546 55.5403C697.57 55.4271 697.571 55.516 697.571 48.626C697.571 43.0578 697.57 43.1791 692.117 43.1498C689.924 43.138 689.391 44.0436 689.707 45.877C690.203 48.759 688.961 49.3841 686.238 49.3298C677.442 49.1543 668.639 49.1977 659.841 49.314C657.799 49.341 657.223 48.7454 657.278 46.7426C657.421 41.5145 657.125 36.2668 657.434 31.0524C657.924 22.7672 661.909 18.8353 670.254 18.5116C677.61 18.2263 684.984 18.3938 692.35 18.3807C699.82 18.3674 707.289 18.3922 714.759 18.3702C717.444 18.3623 720.056 18.7139 722.567 19.6928C726.766 21.3299 729.182 24.354 729.558 28.8944C729.719 30.8328 729.83 32.7817 729.832 34.7259C729.849 61.2983 729.806 87.8708 729.903 114.443C729.912 116.975 729.332 117.691 726.734 117.671C710.363 117.542 693.991 117.606 677.313 117.606Z" fill="#FDAA00"/>
<path d="M453.701 39.4123C453.701 60.9592 453.702 82.1985 453.7 103.438C453.7 112.582 449.905 117.198 440.788 117.417C425.245 117.791 409.68 117.792 394.137 117.406C385.132 117.182 381.343 112.597 381.341 103.647C381.335 79.8431 381.332 56.0387 381.342 32.2344C381.345 23.4532 385.499 18.6811 394.243 18.5298C409.791 18.2607 425.35 18.2601 440.898 18.5415C449.592 18.6988 453.685 23.3981 453.7 32.0248C453.704 34.3847 453.701 36.7446 453.701 39.4123Z" fill="#FDAA00"/>
<path d="M971.186 87.0427C971.397 92.503 971.43 97.7348 971.434 102.967C971.441 113.032 967.289 117.344 957.148 117.577C951.216 117.713 945.279 117.604 939.344 117.605C931.056 117.605 922.767 117.587 914.479 117.616C912.107 117.624 909.784 117.345 907.522 116.676C902.005 115.043 899.108 111.382 899.097 105.638C899.048 80.604 899.038 55.5695 899.099 30.5353C899.116 23.169 903.793 18.7343 912.132 18.5057C921.845 18.2394 931.57 18.3944 941.29 18.3819C946.816 18.3748 952.346 18.2598 957.865 18.4392C967.148 18.741 971.429 23.2664 971.435 32.5162C971.443 47.3932 971.346 62.2712 971.516 77.1462C971.549 79.9912 970.686 80.4797 968.098 80.4472C956.844 80.306 945.586 80.4423 934.331 80.3386C932.145 80.3184 931.141 80.7192 931.379 83.1644C931.606 85.502 931.615 87.8985 931.376 90.2337C931.124 92.6939 932.145 93.323 934.308 92.9846C934.708 92.9221 935.136 92.9146 935.533 92.9855C938.409 93.499 939.74 92.486 939.177 89.431C938.789 87.3207 939.66 86.6386 941.839 86.671C951.557 86.8154 961.277 86.7828 971.186 87.0427Z" fill="#FEAA00"/>
<path d="M131.423 289.382C125.898 289.382 120.678 289.304 115.463 289.424C113.673 289.466 113.261 288.88 113.263 287.172C113.31 255.985 113.31 224.797 113.264 193.61C113.262 191.896 113.704 191.34 115.478 191.346C133.895 191.408 152.312 191.361 170.729 191.424C172.646 191.43 174.615 191.754 176.467 192.267C181.472 193.652 184.509 196.984 184.662 202.161C184.942 211.692 184.898 221.239 184.754 230.775C184.694 234.796 183.52 235.96 177.286 240.377C180.692 242.327 184.033 244.308 184.61 248.619C184.732 249.529 184.835 250.45 184.836 251.366C184.851 263.164 184.786 274.962 184.902 286.759C184.923 288.916 184.395 289.47 182.234 289.438C173.233 289.304 164.227 289.322 155.224 289.43C153.333 289.453 152.846 288.986 152.864 287.073C152.967 276.507 152.843 265.939 152.969 255.374C152.996 253.118 152.513 252.39 150.145 252.479C145.256 252.665 145.251 252.514 145.251 257.318C145.251 267.166 145.2 277.015 145.293 286.863C145.311 288.826 144.866 289.54 142.777 289.434C139.103 289.248 135.413 289.382 131.423 289.382Z" fill="#FDFDFD"/>
<path d="M534.238 54.1882C534.238 74.6062 534.193 94.7166 534.298 114.826C534.31 117.174 533.676 117.697 531.418 117.662C522.62 117.523 513.816 117.488 505.02 117.676C502.33 117.733 501.901 116.829 501.911 114.386C502.004 91.7109 501.974 69.0355 501.941 46.3603C501.939 45.3204 502.553 43.6125 501.206 43.3804C499.048 43.0082 496.677 42.7094 494.598 43.6057C493.744 43.974 494.245 45.5009 494.244 46.4944C494.224 69.067 494.167 91.64 494.304 114.212C494.322 117.13 493.448 117.72 490.744 117.668C482.05 117.5 473.349 117.552 464.652 117.646C462.667 117.668 461.814 117.363 461.82 115.044C461.901 83.6475 461.895 52.2509 461.827 20.8546C461.822 18.7386 462.533 18.3182 464.461 18.3384C473.158 18.4292 481.859 18.4979 490.553 18.3094C493.39 18.2478 494.83 18.8037 494.245 21.9151C494.134 22.5041 494.229 23.1321 494.229 24.2215C499.236 21.1325 504.366 19.34 509.874 18.7786C516.208 18.1329 522.532 17.5462 528.283 21.3277C532.152 23.8724 534.352 27.2054 534.27 32.0264C534.147 39.3091 534.238 46.5955 534.238 54.1882Z" fill="#FDAA00"/>
<path d="M488.071 289.38C474.38 289.382 460.982 289.37 447.584 289.391C444.497 289.396 441.452 289.135 438.554 288.035C434.353 286.439 431.923 283.421 431.593 278.85C431.49 277.422 431.382 275.99 431.382 274.56C431.368 251.795 431.37 229.029 431.373 206.264C431.375 195.754 435.446 191.494 445.954 191.412C460.067 191.301 474.181 191.382 488.295 191.388C489.112 191.388 489.932 191.421 490.745 191.494C498.689 192.21 502.755 196.465 502.898 204.441C503.009 210.695 502.921 216.952 502.922 223.207C502.922 232.026 502.814 240.848 502.99 249.663C503.04 252.18 502.231 252.619 499.944 252.596C488.695 252.482 477.444 252.609 466.195 252.49C463.935 252.466 463.069 252.975 463.278 255.353C463.493 257.795 463.456 260.28 463.286 262.73C463.147 264.726 463.961 265.299 465.758 265.063C466.261 264.998 466.794 264.974 467.288 265.067C470.355 265.641 471.602 264.44 470.99 261.349C470.569 259.225 471.608 258.838 473.522 258.857C482.418 258.947 491.319 259.002 500.213 258.829C502.679 258.78 503.055 259.637 502.969 261.792C502.806 265.888 502.922 269.994 502.922 274.096C502.92 284.953 499.319 288.733 488.071 289.38Z" fill="#FDFDFD"/>
<path d="M263.976 200.436C264.805 217.29 264.137 233.902 264.415 250.506C264.449 252.502 263.51 252.57 262.006 252.565C250.654 252.527 239.3 252.662 227.951 252.461C225.102 252.411 224.415 253.296 224.723 255.874C224.916 257.491 224.759 259.151 224.759 260.791C224.759 265.064 224.769 264.883 229.12 265.12C231.831 265.268 232.932 264.494 232.427 261.759C232.008 259.492 232.886 258.799 235.232 258.838C244.025 258.986 252.823 258.955 261.617 258.854C263.654 258.831 264.518 259.224 264.429 261.507C264.248 266.114 264.423 270.734 264.365 275.348C264.245 284.704 260.417 288.922 251.045 289.231C241.442 289.548 231.821 289.452 222.21 289.347C215.784 289.276 209.325 289.986 202.934 288.806C196.298 287.58 192.926 283.99 192.895 277.294C192.783 252.684 192.775 228.072 192.91 203.463C192.95 196.168 197.262 191.736 205.025 191.582C220.766 191.271 236.521 191.309 252.263 191.605C257.753 191.708 262.371 194.143 263.976 200.436Z" fill="#FDFDFD"/>
<path d="M815.15 204.039C815.66 196.028 819.408 191.755 827.256 191.592C842.999 191.264 858.759 191.244 874.5 191.606C882.54 191.791 886.546 196.448 886.573 204.514C886.653 228.411 886.645 252.309 886.574 276.207C886.554 282.893 881.151 288.798 873.056 289.077C857.136 289.625 841.154 290.217 825.254 288.722C818.531 288.09 815.264 283.763 815.166 277C815.089 271.668 815.197 266.333 815.121 261.001C815.099 259.434 815.526 258.85 817.183 258.863C826.389 258.933 835.596 258.971 844.801 258.844C847.072 258.813 846.869 260.016 846.928 261.518C846.973 262.655 846.208 264.444 847.544 264.814C849.668 265.403 852.012 265.317 854.204 264.8C854.968 264.62 854.645 263.545 854.652 262.865C854.679 260.199 854.534 257.523 854.705 254.868C854.834 252.882 854.072 252.481 852.251 252.506C845.194 252.602 838.136 252.555 831.078 252.538C829.037 252.533 827.01 252.493 824.986 252.036C818.25 250.515 815.194 246.911 815.164 240.013C815.114 228.115 815.15 216.218 815.15 204.039Z" fill="#FDFDFD"/>
<path d="M966.014 265.369C966.013 269.164 965.914 272.654 966.038 276.137C966.197 280.607 964.129 283.777 960.543 286.084C957.218 288.222 953.604 289.417 949.577 289.401C936.485 289.348 923.392 289.407 910.299 289.353C908.271 289.345 906.214 289.122 904.221 288.733C898.032 287.523 894.724 283.438 894.687 277.091C894.656 271.861 894.781 266.627 894.63 261.401C894.571 259.363 895.162 258.828 897.166 258.853C905.961 258.96 914.76 258.991 923.554 258.839C925.998 258.797 926.821 259.497 926.569 261.911C926.465 262.9 925.89 264.651 927.141 264.886C929.29 265.29 931.583 265.318 933.778 264.771C933.957 264.727 934.059 264.048 934.062 263.663C934.085 260.484 934.006 257.302 934.103 254.126C934.16 252.289 933.001 252.541 931.882 252.542C924.926 252.545 917.971 252.548 911.015 252.539C909.687 252.537 908.355 252.528 907.031 252.432C898.753 251.835 894.682 247.461 894.681 239.193C894.679 227.808 894.953 216.415 894.594 205.043C894.304 195.862 899.914 191.691 907.641 191.505C916.943 191.281 926.254 191.394 935.562 191.39C941.391 191.387 947.227 191.266 953.048 191.505C962.006 191.873 965.991 196.121 966.004 205.063C966.034 225.062 966.014 245.062 966.014 265.369Z" fill="#FEFEFE"/>
<path d="M260.892 72.569C260.574 70.7177 260.109 69.1062 260.101 67.4925C260.043 55.3904 259.832 43.2812 260.16 31.1877C260.389 22.7657 264.625 18.9027 273.132 18.4811C277.316 18.2737 281.516 18.3849 285.709 18.381C296.144 18.371 306.578 18.3971 317.012 18.3651C319.904 18.3562 322.732 18.653 325.424 19.7393C329.468 21.3708 331.845 24.3277 332.266 28.7363C332.861 34.9788 332.411 41.2398 332.57 47.4899C332.602 48.7827 332.184 49.2926 330.826 49.2865C321.21 49.2427 311.594 49.2143 301.978 49.3027C299.921 49.3216 300.407 48.0694 300.255 46.9054C300.095 45.6856 301.091 43.7419 299.529 43.3866C297.404 42.9037 295.051 42.8708 292.872 43.49C292.129 43.7011 292.423 44.758 292.416 45.4467C292.391 48.0108 292.521 50.5821 292.368 53.1372C292.254 55.0466 292.917 55.5827 294.785 55.555C301.535 55.4551 308.288 55.5158 315.039 55.516C315.858 55.516 316.679 55.4711 317.494 55.5242C327.52 56.1765 332.855 59.1952 332.604 71.0674C332.378 81.73 332.577 92.4012 332.55 103.069C332.526 113.109 328.23 117.524 318.184 117.583C303.761 117.669 289.336 117.606 274.912 117.605C272.44 117.604 270.029 117.206 267.7 116.381C263.219 114.792 260.672 111.682 260.274 106.865C259.776 100.823 260.216 94.7686 259.998 88.7258C259.925 86.6828 261.025 86.6971 262.487 86.7024C271.489 86.7354 280.493 86.8212 289.492 86.6531C292.013 86.6061 292.632 87.4317 292.474 89.7564C292.405 90.7778 291.585 92.5964 293.308 92.8488C295.483 93.1673 297.761 93.2229 299.969 92.7226C300.091 92.6949 300.231 92.3984 300.232 92.2265C300.244 88.5351 300.358 84.8376 300.171 81.1555C300.107 79.9029 298.676 80.4183 297.862 80.4135C290.599 80.3711 283.336 80.4019 276.073 80.3812C273.512 80.374 270.967 80.1653 268.497 79.4105C264.999 78.3414 262.274 76.3825 260.892 72.569Z" fill="#FDAA00"/>
<path d="M870.731 18.3786C874.503 18.4704 877.983 18.1315 881.419 18.9739C887.451 20.4521 890.615 23.96 890.847 30.1944C891.06 35.9303 890.85 41.6809 890.931 47.4236C890.952 48.9811 890.329 49.2929 888.94 49.2863C879.529 49.2417 870.117 49.193 860.707 49.3158C858.522 49.3444 858.519 48.2972 858.505 46.7017C858.495 45.5609 859.216 43.691 857.87 43.3993C855.742 42.9379 853.42 42.8965 851.23 43.5365C851.01 43.6007 850.846 44.2341 850.842 44.6051C850.812 47.7842 850.827 50.9637 850.823 54.1432C850.82 56.072 852.288 55.4886 853.265 55.4943C860.323 55.536 867.382 55.5159 874.44 55.5174C877.107 55.518 879.756 55.7322 882.319 56.5094C887.972 58.2244 890.773 61.5424 890.843 67.4512C890.995 80.1677 891.026 92.8891 890.846 105.605C890.741 112.97 886.487 117.259 878.34 117.433C862.697 117.768 847.036 117.802 831.396 117.42C822.294 117.197 818.54 112.597 818.539 103.435C818.538 98.6142 818.602 93.7922 818.504 88.9735C818.47 87.3028 818.847 86.661 820.672 86.6786C829.98 86.7688 839.29 86.8055 848.597 86.6635C851.102 86.6253 850.745 88.0255 850.847 89.5823C850.92 90.7022 850.089 92.5294 851.546 92.8138C853.69 93.2323 856.013 93.2913 858.195 92.6927C858.818 92.5218 858.529 91.5954 858.535 91.013C858.561 88.244 858.422 85.4669 858.589 82.7077C858.709 80.7121 857.897 80.3606 856.113 80.3485C847.628 80.2909 839.126 80.8221 830.66 80.1031C822.162 79.3816 818.547 75.2162 818.541 66.6376C818.532 55.2526 818.537 43.8676 818.539 32.4826C818.541 23.0442 822.762 18.5695 832.372 18.434C845.054 18.2552 857.74 18.3827 870.731 18.3786Z" fill="#FDAA00"/>
<path d="M241.273 56.027C249.243 57.9059 251.844 61.0888 251.868 68.9058C251.904 80.5997 251.894 92.2937 251.872 103.988C251.857 112.565 247.999 117.222 239.442 117.415C223.697 117.77 207.931 117.804 192.188 117.394C183.37 117.165 179.608 112.524 179.595 103.761C179.588 98.8376 179.65 93.9128 179.563 88.9906C179.533 87.3035 179.986 86.6668 181.785 86.6825C191.094 86.7636 200.405 86.8157 209.713 86.6633C212.578 86.6164 211.676 88.4259 211.888 89.8747C212.037 90.8971 211.175 92.6266 212.536 92.816C214.798 93.1309 217.194 93.385 219.455 92.5892C219.687 92.5078 219.726 91.6697 219.73 91.1817C219.755 88.3097 219.645 85.4329 219.778 82.5668C219.863 80.7115 219.049 80.3475 217.42 80.3617C210.463 80.4225 203.506 80.4086 196.55 80.3726C194.715 80.3631 192.87 80.269 191.048 80.0564C183.361 79.1597 179.623 74.9615 179.602 67.1659C179.57 55.472 179.582 43.778 179.597 32.084C179.609 23.2545 183.675 18.7589 192.609 18.5178C203.445 18.2254 214.294 18.3939 225.137 18.3834C229.74 18.3789 234.351 18.2612 238.944 18.4857C247.719 18.9147 251.847 23.3784 251.875 32.1694C251.89 37.0931 251.783 42.0196 251.924 46.9393C251.98 48.8845 251.361 49.3256 249.506 49.3064C240.402 49.212 231.296 49.2275 222.191 49.2956C220.477 49.3085 219.514 49.1114 219.68 47.0169C219.775 45.8144 220.501 43.7952 219.05 43.4436C216.933 42.931 214.593 43.2301 212.362 43.3862C211.723 43.4309 211.864 44.4068 211.872 44.9995C211.916 48.3699 210.805 52.5531 212.395 54.8664C213.801 56.9128 218.286 55.3692 221.408 55.5009C227.94 55.7765 234.499 55.0122 241.273 56.027Z" fill="#FDAA00"/>
<path d="M789.066 49.2636C786.099 49.2636 783.425 49.0879 780.785 49.316C778.427 49.5198 777.747 48.7122 777.944 46.4345C778.033 45.4094 778.783 43.5725 777.12 43.34C774.952 43.037 772.65 42.8258 770.494 43.5887C770.211 43.6888 770.156 44.6869 770.148 45.2712C770.112 47.8348 770.249 50.4063 770.094 52.9609C769.973 54.954 770.581 55.6029 772.641 55.5652C779.594 55.4381 786.551 55.5104 793.507 55.5235C794.629 55.5256 795.757 55.5569 796.872 55.6726C807.099 56.7339 810.281 60.2557 810.282 70.4748C810.282 81.5516 810.288 92.6284 810.28 103.705C810.273 112.76 806.499 117.268 797.527 117.457C782.089 117.783 766.635 117.78 751.197 117.453C741.85 117.255 738.017 112.773 737.998 103.478C737.995 101.939 737.998 100.401 737.998 98.8622C737.998 95.7854 738.123 92.7016 737.955 89.6339C737.837 87.4759 738.266 86.6069 740.727 86.6535C749.623 86.8222 758.525 86.7848 767.423 86.6719C769.509 86.6454 770.539 87.1145 770.13 89.3406C769.597 92.2417 770.641 93.545 773.681 92.997C774.473 92.8542 775.321 92.9017 776.13 92.9909C777.595 93.1525 778.099 92.5919 778.04 91.1039C777.936 88.4414 777.882 85.7635 778.053 83.1078C778.187 81.0143 777.611 80.2866 775.392 80.3333C768.44 80.4796 761.482 80.3986 754.526 80.3767C753.201 80.3725 751.871 80.2891 750.552 80.1518C741.424 79.201 738.011 75.3926 738 66.1357C737.988 55.0588 738.29 43.972 737.916 32.908C737.534 21.6288 744.41 18.4635 752.339 18.4076C766.148 18.3102 779.957 18.3792 793.766 18.3788C796.117 18.3787 798.449 18.4161 800.769 18.969C806.877 20.4245 809.985 23.8358 810.216 30.1074C810.428 35.8432 810.206 41.5939 810.32 47.3351C810.355 49.1446 809.527 49.2975 808.091 49.2856C801.852 49.2341 795.612 49.2636 789.066 49.2636Z" fill="#FDAA00"/>
<path d="M609.15 191.385C614.571 191.385 619.689 191.488 624.799 191.335C626.916 191.272 627.891 191.839 627.468 194.021C626.871 197.1 628.252 197.66 631.11 197.614C642.154 197.435 653.204 197.59 664.25 197.496C666.252 197.479 667.096 197.77 667.034 200.079C666.861 206.536 666.889 213.002 667.025 219.461C667.066 221.421 666.468 221.816 664.625 221.802C653.169 221.716 641.712 221.834 630.257 221.697C627.901 221.669 627.398 222.331 627.418 224.599C627.534 237.213 627.53 249.829 627.42 262.443C627.401 264.642 628.049 265.152 630.15 265.109C635.448 264.999 635.45 265.106 635.45 259.766C635.45 250.023 635.494 240.279 635.411 230.537C635.396 228.725 635.748 228.041 637.742 228.066C646.742 228.178 655.744 228.154 664.745 228.08C666.442 228.066 667.02 228.498 667.012 230.291C666.945 246.085 667.039 261.88 666.941 277.674C666.897 284.911 662.4 289.049 653.983 289.243C642.635 289.505 631.278 289.364 619.925 289.376C616.243 289.38 612.554 289.469 608.882 289.263C599.582 288.741 595.647 284.523 595.643 275.268C595.634 258.448 595.574 241.627 595.709 224.808C595.731 222.158 594.955 221.346 592.478 221.736C591.58 221.877 590.63 221.67 589.722 221.778C588.011 221.981 587.71 221.164 587.726 219.638C587.797 212.972 587.8 206.305 587.724 199.639C587.707 198.084 588.067 197.312 589.744 197.527C590.448 197.617 591.192 197.439 591.887 197.559C594.89 198.076 596.277 197.039 595.647 193.855C595.253 191.86 596.089 191.241 598.105 191.337C601.677 191.507 605.263 191.385 609.15 191.385Z" fill="#FEFEFE"/>
<path d="M307.629 216.017C305.103 215.683 303.917 216.269 304.239 218.888C304.488 220.909 304.477 223.007 304.243 225.032C303.931 227.73 305.058 228.2 307.505 228.172C315.48 228.082 323.47 228.01 331.431 228.391C340.066 228.805 343.845 233.099 343.875 241.829C343.914 253.114 343.915 264.4 343.874 275.685C343.843 284.448 339.93 289.008 331.167 289.195C315.93 289.521 300.677 289.518 285.44 289.2C276.247 289.007 272.44 284.611 272.343 275.424C272.292 270.603 272.392 265.78 272.302 260.959C272.272 259.333 272.81 258.854 274.409 258.865C283.618 258.929 292.828 258.959 302.035 258.848C304.099 258.823 304.355 259.672 304.346 261.396C304.339 262.589 303.483 264.516 305.107 264.883C307.148 265.343 309.382 265.076 311.516 264.91C312.136 264.862 311.94 263.88 311.943 263.299C311.958 260.427 311.843 257.548 311.989 254.683C312.082 252.864 311.389 252.49 309.72 252.51C302.661 252.593 295.6 252.552 288.54 252.539C287.109 252.536 285.669 252.545 284.248 252.4C276.602 251.619 272.732 248.091 272.527 240.486C272.196 228.187 272.178 215.867 272.509 203.568C272.723 195.615 276.856 191.866 285.042 191.528C291.784 191.249 298.544 191.4 305.296 191.386C312.97 191.37 320.644 191.387 328.318 191.38C330.471 191.378 332.601 191.511 334.705 192.037C340.457 193.474 343.504 196.883 343.754 202.867C343.994 208.603 343.816 214.355 343.913 220.098C343.937 221.493 343.429 221.791 342.146 221.785C332.63 221.739 323.114 221.731 313.599 221.792C312.182 221.801 311.714 221.274 311.961 220.012C312.624 216.618 311.248 215.351 307.629 216.017Z" fill="#FDFDFD"/>
<path d="M510.901 272.131C510.901 249.776 510.897 227.728 510.903 205.679C510.906 196.077 514.952 191.609 524.547 191.473C539.373 191.263 554.206 191.314 569.034 191.482C576.127 191.562 580.752 194.854 581.936 200.153C582.333 201.933 582.417 203.812 582.429 205.646C582.479 213.85 582.383 222.056 582.498 230.258C582.527 232.293 581.945 232.812 579.942 232.787C570.943 232.676 561.941 232.661 552.942 232.796C550.812 232.828 550.399 232.112 550.459 230.194C550.585 226.096 550.438 221.99 550.527 217.89C550.56 216.406 550.078 216.031 548.624 215.976C542.832 215.754 542.834 215.695 542.834 221.615C542.834 235.152 542.886 248.689 542.783 262.225C542.766 264.424 543.156 265.22 545.565 265.123C550.491 264.924 550.497 265.086 550.497 260.014C550.497 254.783 550.561 249.552 550.462 244.324C550.429 242.567 550.721 241.794 552.758 241.82C561.961 241.934 571.167 241.882 580.372 241.855C581.621 241.852 582.492 241.883 582.48 243.583C582.4 254.657 582.674 265.74 582.306 276.803C582.02 285.396 577.846 289.126 568.567 289.269C553.946 289.494 539.318 289.332 524.694 289.305C523.685 289.303 522.668 289.099 521.669 288.914C513.954 287.486 510.989 283.958 510.903 276.129C510.89 274.898 510.901 273.668 510.901 272.131Z" fill="#FDFDFD"/>
<path d="M619.589 18.3781C625.421 18.4063 630.954 18.2661 636.47 18.5061C643.137 18.7962 647.479 21.9759 648.747 27.2245C649.102 28.697 649.144 30.2712 649.148 31.7992C649.179 43.4968 649.191 55.1945 649.156 66.8921C649.132 75.1834 645.436 79.3532 637.077 80.0972C628.814 80.8326 620.511 80.3761 612.229 80.3123C609.589 80.292 609.057 81.0822 609.091 83.5726C609.233 94.037 609.084 104.505 609.206 114.97C609.231 117.156 608.63 117.688 606.495 117.658C597.593 117.533 588.688 117.536 579.786 117.655C577.609 117.684 576.813 117.291 576.82 114.854C576.911 83.6604 576.915 52.4665 576.816 21.2731C576.808 18.6616 577.758 18.3204 579.985 18.3352C593.083 18.4224 606.183 18.3781 619.589 18.3781Z" fill="#FDAA00"/>
<path d="M417.101 250.89C413.906 252.184 410.798 252.579 407.594 252.557C400.431 252.51 393.267 252.62 386.106 252.492C384.153 252.457 383.74 253.062 383.754 254.908C383.839 265.579 383.739 276.25 383.845 286.92C383.865 288.943 383.32 289.453 381.328 289.429C372.324 289.318 363.318 289.314 354.314 289.431C352.287 289.458 351.816 288.886 351.82 286.902C351.884 255.916 351.892 224.929 351.81 193.942C351.804 191.688 352.509 191.328 354.553 191.338C372.358 191.42 390.164 191.383 407.97 191.39C408.992 191.39 410.017 191.418 411.036 191.498C418.984 192.122 422.952 195.674 423.219 203.597C423.644 216.201 423.631 228.824 423.186 241.436C423.037 245.665 421.184 248.873 417.101 250.89Z" fill="#FEFEFE"/>
<path d="M747.921 216.008C750.479 216.008 752.735 216.092 754.981 215.98C756.558 215.901 757.16 216.379 757.075 218.037C756.945 220.596 757.157 223.173 757.003 225.729C756.891 227.577 757.376 228.242 759.339 228.156C763.118 227.991 766.911 228.167 770.695 228.08C772.248 228.044 772.862 228.462 772.842 230.136C772.761 236.907 772.74 243.681 772.852 250.452C772.884 252.364 772.086 252.615 770.493 252.576C766.811 252.486 763.121 252.646 759.443 252.506C757.606 252.435 756.876 252.874 756.998 254.852C757.169 257.612 756.966 260.393 757.071 263.16C757.128 264.662 756.584 265.106 755.139 265.099C745.724 265.054 736.309 265.054 726.895 265.1C725.532 265.107 725.142 264.624 725.177 263.315C725.255 260.444 725.092 257.564 725.24 254.699C725.334 252.889 724.687 252.455 722.982 252.51C719.199 252.631 715.409 252.485 711.625 252.577C710.019 252.616 709.256 252.34 709.288 250.442C709.403 243.672 709.386 236.898 709.296 230.127C709.274 228.434 709.907 228.048 711.438 228.082C715.12 228.164 718.819 227.921 722.485 228.174C724.942 228.343 725.41 227.431 725.242 225.257C725.06 222.911 725.308 220.533 725.165 218.182C725.06 216.448 725.601 215.94 727.353 215.966C734.106 216.069 740.861 216.008 747.921 216.008Z" fill="#FBFBFB"/>
<path d="M170.496 49.3285C171.584 50.1383 171.223 51.122 171.224 51.997C171.246 72.9121 171.206 93.8273 171.293 114.742C171.302 116.982 170.83 117.708 168.461 117.667C159.568 117.514 150.669 117.535 141.775 117.656C139.589 117.686 138.811 117.282 138.824 114.851C138.932 93.9363 138.923 73.0208 138.833 52.1061C138.823 49.8344 139.348 49.1653 141.685 49.2015C151.192 49.349 160.703 49.2705 170.496 49.3285Z" fill="#FDA900"/>
<path d="M1060.13 72.6586C1060.13 55.3297 1060.17 38.3084 1060.09 21.2876C1060.07 19.0975 1060.49 18.2708 1062.91 18.3135C1071.91 18.472 1080.91 18.4366 1089.91 18.3305C1091.91 18.3068 1092.46 18.8642 1092.45 20.8783C1092.38 42.0007 1092.38 63.1235 1092.45 84.2458C1092.46 86.3272 1091.8 86.7873 1089.86 86.7672C1080.76 86.6736 1071.65 86.678 1062.55 86.765C1060.69 86.7828 1060.04 86.2417 1060.1 84.347C1060.22 80.5569 1060.13 76.7603 1060.13 72.6586Z" fill="#FCA900"/>
<path d="M372.842 89.8981C372.842 98.5073 372.776 106.81 372.889 115.11C372.917 117.137 372.329 117.671 370.338 117.648C361.242 117.545 352.143 117.546 343.048 117.649C341.137 117.671 340.666 117.123 340.672 115.247C340.737 94.0328 340.738 72.8178 340.67 51.6032C340.664 49.6998 341.179 49.1984 343.064 49.219C352.16 49.3185 361.258 49.3248 370.354 49.2165C372.373 49.1924 372.901 49.7741 372.887 51.7728C372.798 64.3781 372.842 76.9843 372.842 89.8981Z" fill="#FFAB00"/>
<path d="M1075.21 117.606C1070.72 117.606 1066.53 117.528 1062.35 117.643C1060.61 117.691 1060.07 117.149 1060.1 115.405C1060.18 108.651 1060.19 101.895 1060.1 95.1419C1060.07 93.3484 1060.7 92.9277 1062.38 92.9407C1071.67 93.0119 1080.96 93.0209 1090.25 92.9343C1092.02 92.9178 1092.47 93.4546 1092.44 95.1751C1092.35 101.928 1092.34 108.685 1092.45 115.438C1092.47 117.207 1091.94 117.683 1090.21 117.644C1085.32 117.534 1080.42 117.606 1075.21 117.606Z" fill="#FDA900"/>
<path d="M171.241 21.0564C171.241 27.8038 171.16 34.2574 171.289 40.7069C171.33 42.7734 170.663 43.2738 168.686 43.2524C159.597 43.154 150.505 43.1493 141.416 43.2553C139.396 43.2788 138.805 42.7038 138.841 40.6818C138.96 34.027 138.96 27.3675 138.841 20.7128C138.806 18.7498 139.484 18.3253 141.3 18.341C150.492 18.4207 159.685 18.4255 168.877 18.3381C170.756 18.3203 171.542 18.8812 171.241 21.0564Z" fill="#FDA900"/>
<path d="M367.807 43.2056C359.539 43.2056 351.573 43.1345 343.609 43.2527C341.462 43.2845 340.573 42.9295 340.647 40.4694C340.842 34.0248 340.791 27.5689 340.668 21.1208C340.629 19.0732 341.042 18.2919 343.298 18.3257C352.282 18.4603 361.271 18.4601 370.255 18.3258C372.508 18.2921 372.934 19.0675 372.888 21.1189C372.757 26.8497 372.842 32.5855 372.842 38.3193C372.842 43.2052 372.842 43.2052 367.807 43.2056Z" fill="#FFAB00"/>
<path d="M568.011 27.0988C568.018 23.4084 568.024 20.0256 568.039 16.6428C568.04 16.5579 568.148 16.4735 568.414 16.0845C568.414 50.5824 568.414 84.7767 568.414 118.971C568.28 118.972 568.145 118.973 568.011 118.973C568.011 88.451 568.011 57.9287 568.011 27.0988Z" fill="#7F7F7F"/>
<path d="M105.019 208.725C105.019 235.867 105.019 262.7 105.019 289.534C104.883 289.534 104.747 289.534 104.611 289.534C104.611 256.801 104.611 224.067 104.611 191.334C104.747 191.331 104.883 191.327 105.019 191.324C105.019 197.022 105.019 202.72 105.019 208.725Z" fill="#BFBFBF"/>
<path d="M599.325 9.24402C611.461 9.24402 623.289 9.24402 635.118 9.24402C635.118 9.38264 635.118 9.52126 635.118 9.65987C615.35 9.65987 595.583 9.65987 575.816 9.65987C575.814 9.52126 575.811 9.38264 575.809 9.24402C583.545 9.24402 591.282 9.24402 599.325 9.24402Z" fill="#C0C0C0"/>
<path d="M157.213 182.866C142.423 182.866 127.94 182.866 113.457 182.866C113.457 182.729 113.457 182.593 113.457 182.456C131.983 182.456 150.51 182.456 169.036 182.456C169.041 182.593 169.046 182.729 169.051 182.866C165.207 182.866 161.363 182.866 157.213 182.866Z" fill="#C0C0C0"/>
<path d="M374.585 182.866C366.945 182.866 359.612 182.866 352.279 182.866C352.28 182.725 352.28 182.584 352.281 182.443C370.629 182.443 388.977 182.443 407.325 182.443C407.327 182.584 407.329 182.725 407.33 182.866C396.518 182.866 385.705 182.866 374.585 182.866Z" fill="#C0C0C0"/>
<path d="M1083.8 9.85952C1076.75 9.85951 1070 9.74829 1063.26 9.91942C1060.89 9.9798 1060.34 9.21382 1060.42 6.97007C1060.59 2.49693 1060.47 -1.98752 1061.09 -6.46515C1061.09 -3.51891 1061.09 -0.572673 1061.09 2.37357C1061.09 9.24243 1061.09 9.24243 1068.08 9.24243C1076.45 9.24243 1084.81 9.24243 1093.17 9.24243C1093.18 9.44813 1093.18 9.65383 1093.19 9.85952C1090.16 9.85952 1087.14 9.85952 1083.8 9.85952Z" fill="#BFBFBF"/>
<path d="M675.467 270.271C675.467 256.27 675.467 242.572 675.467 228.875C675.605 228.874 675.743 228.874 675.88 228.874C675.88 244.789 675.88 260.705 675.88 276.62C675.743 276.628 675.605 276.636 675.467 276.644C675.467 274.621 675.467 272.598 675.467 270.271Z" fill="#BFBFBF"/>
<path d="M294.145 9.85793C287.325 9.85793 280.813 9.85793 274.3 9.85793C274.301 9.7176 274.301 9.57727 274.301 9.43694C288.962 9.43694 303.623 9.43694 318.284 9.43694C318.286 9.57727 318.289 9.7176 318.291 9.85793C310.345 9.85793 302.398 9.85793 294.145 9.85793Z" fill="#C0C0C0"/>
<path d="M193.977 9.39666C208.785 9.26804 223.366 9.26804 237.946 9.26804C237.951 9.40242 237.956 9.53679 237.961 9.67118C237.49 9.73324 237.02 9.84921 236.549 9.84954C222.761 9.85924 208.973 9.86075 195.184 9.84345C194.706 9.84285 194.228 9.636 193.977 9.39666Z" fill="#C0C0C0"/>
<path d="M694.502 9.85794C686.662 9.85794 679.128 9.85794 671.595 9.85794C671.595 9.71838 671.595 9.57883 671.596 9.43927C686.252 9.43927 700.908 9.43927 715.564 9.43927C715.566 9.57883 715.569 9.71838 715.572 9.85794C708.651 9.85794 701.73 9.85794 694.502 9.85794Z" fill="#C0C0C0"/>
<path d="M773.714 9.85794C766.282 9.85794 759.157 9.85794 752.032 9.85794C752.032 9.71807 752.032 9.57821 752.033 9.43834C766.691 9.43834 781.349 9.43834 796.006 9.43834C796.009 9.57821 796.012 9.71807 796.014 9.85794C788.683 9.85794 781.352 9.85794 773.714 9.85794Z" fill="#C0C0C0"/>
<path d="M412.656 9.24402C421.721 9.24402 430.479 9.24402 439.237 9.24402C439.237 9.38255 439.237 9.52108 439.237 9.65962C424.792 9.65962 410.347 9.65962 395.902 9.65962C395.899 9.52108 395.895 9.38255 395.892 9.24402C401.377 9.24402 406.863 9.24402 412.656 9.24402Z" fill="#C0C0C0"/>
<path d="M867.046 9.24402C870.395 9.24402 873.438 9.24402 876.48 9.24402C876.478 9.38667 876.477 9.52931 876.475 9.67196C862.004 9.67196 847.533 9.67196 833.063 9.67196C833.061 9.52931 833.059 9.38667 833.058 9.24402C844.285 9.24402 855.513 9.24402 867.046 9.24402Z" fill="#C0C0C0"/>
<path d="M920.487 9.85794C917.956 9.85794 915.729 9.85794 913.502 9.85794C913.504 9.71604 913.506 9.57415 913.508 9.43225C927.974 9.43225 942.441 9.43225 956.908 9.43225C956.91 9.57415 956.911 9.71604 956.913 9.85794C944.872 9.85794 932.831 9.85794 920.487 9.85794Z" fill="#C0C0C0"/>
<path d="M841.26 182.252C851.344 182.252 861.121 182.252 870.898 182.252C870.898 182.389 870.899 182.526 870.899 182.664C857.485 182.664 844.072 182.664 830.658 182.664C830.653 182.526 830.647 182.389 830.642 182.252C834.079 182.252 837.516 182.252 841.26 182.252Z" fill="#C0C0C0"/>
<path d="M315.022 182.866C305.959 182.866 297.203 182.866 288.447 182.866C288.447 182.728 288.447 182.59 288.447 182.452C301.66 182.452 314.873 182.452 328.086 182.452C328.09 182.59 328.095 182.728 328.099 182.866C323.842 182.866 319.586 182.866 315.022 182.866Z" fill="#C0C0C0"/>
<path d="M227.214 182.252C234.44 182.252 241.359 182.252 248.278 182.252C248.278 182.391 248.278 182.531 248.278 182.67C235.055 182.67 221.833 182.67 208.61 182.67C208.607 182.531 208.604 182.391 208.601 182.252C214.703 182.252 220.805 182.252 227.214 182.252Z" fill="#C0C0C0"/>
<path d="M448.597 182.253C461.617 182.252 474.362 182.252 487.108 182.252C487.129 182.375 487.151 182.497 487.172 182.62C486.889 182.701 486.606 182.852 486.323 182.852C473.866 182.865 461.41 182.867 448.953 182.856C448.463 182.856 447.972 182.716 447.482 182.641C447.573 182.098 448.029 182.351 448.597 182.253Z" fill="#C0C0C0"/>
<path d="M535.469 182.252C545.96 182.252 556.145 182.252 566.33 182.252C566.33 182.389 566.33 182.526 566.331 182.663C553.123 182.663 539.915 182.663 526.707 182.663C526.701 182.526 526.694 182.389 526.688 182.252C529.513 182.252 532.338 182.252 535.469 182.252Z" fill="#C0C0C0"/>
<path d="M949.004 182.865C935.985 182.866 923.239 182.866 910.493 182.866C910.471 182.743 910.45 182.62 910.429 182.498C910.712 182.417 910.995 182.266 911.279 182.265C923.735 182.252 936.192 182.25 948.648 182.261C949.139 182.262 949.629 182.402 950.119 182.477C950.028 183.02 949.573 182.766 949.004 182.865Z" fill="#C0C0C0"/>
<path d="M806.26 208.183C806.26 206.471 806.26 205.055 806.26 203.639C806.402 203.64 806.544 203.641 806.686 203.641C806.686 216.085 806.686 228.529 806.686 240.972C806.544 240.973 806.402 240.974 806.26 240.975C806.26 230.143 806.26 219.311 806.26 208.183Z" fill="#7F7F7F"/>
<path d="M371.356 9.24402C372.517 9.24402 373.393 9.24402 374.269 9.24402C374.266 9.39313 374.262 9.54225 374.259 9.69136C362.609 9.69136 350.959 9.69136 339.309 9.69136C339.308 9.54225 339.307 9.39313 339.306 9.24402C349.894 9.24402 360.482 9.24402 371.356 9.24402Z" fill="#C0C0C0"/>
<path d="M35.632 9.85794C29.0207 9.85794 22.7166 9.85794 16.4124 9.85794C16.4124 9.71872 16.4124 9.5795 16.4124 9.44028C27.996 9.44028 39.5797 9.44028 51.1634 9.44028C51.1671 9.5795 51.1708 9.71872 51.1745 9.85794C46.096 9.85794 41.0175 9.85794 35.632 9.85794Z" fill="#C0C0C0"/>
<path d="M143.138 9.85792C141.224 9.85792 139.61 9.85792 137.996 9.85792C137.996 9.71915 137.997 9.58037 137.997 9.44159C149.376 9.44159 160.754 9.44159 172.133 9.44159C172.135 9.58037 172.137 9.71915 172.139 9.85792C162.571 9.85792 153.004 9.85792 143.138 9.85792Z" fill="#C0C0C0"/>
<path d="M465.53 9.85793C463.822 9.85793 462.411 9.85793 461 9.85793C461 9.72084 461 9.58376 461 9.44667C472.369 9.44667 483.738 9.44667 495.107 9.44667C495.109 9.58376 495.111 9.72084 495.114 9.85793C485.351 9.85793 475.589 9.85793 465.53 9.85793Z" fill="#C0C0C0"/>
<path d="M726.693 273.374C737.119 273.373 747.266 273.373 757.414 273.373C757.412 273.519 757.411 273.665 757.41 273.812C746.59 273.812 735.77 273.812 724.95 273.812C724.947 273.707 724.943 273.602 724.94 273.498C725.431 273.456 725.923 273.415 726.693 273.374Z" fill="#BFBFBF"/>
<path d="M597.743 182.252C607.76 182.252 617.498 182.252 627.236 182.252C627.235 182.398 627.233 182.544 627.232 182.69C616.822 182.69 606.411 182.69 596.001 182.69C595.997 182.585 595.994 182.481 595.99 182.376C596.482 182.335 596.973 182.293 597.743 182.252Z" fill="#C0C0C0"/>
<path d="M729.01 207.493C727.714 207.493 726.708 207.493 725.702 207.493C725.701 207.361 725.701 207.229 725.7 207.098C736.016 207.098 746.332 207.098 756.647 207.098C756.65 207.229 756.653 207.361 756.655 207.493C747.537 207.493 738.418 207.493 729.01 207.493Z" fill="#C0C0C0"/>
<path d="M392.389 277.067C392.389 281.846 392.389 286.318 392.389 290.789C392.24 290.788 392.091 290.786 391.942 290.784C391.942 281.469 391.942 272.153 391.942 262.837C392.091 262.834 392.24 262.831 392.389 262.829C392.389 267.472 392.389 272.115 392.389 277.067Z" fill="#404040"/>
<path d="M781.695 245.656C781.695 248.403 781.695 250.844 781.695 253.284C781.552 253.282 781.408 253.28 781.265 253.277C781.265 244.917 781.265 236.556 781.265 228.196C781.408 228.194 781.552 228.192 781.695 228.191C781.695 233.911 781.695 239.631 781.695 245.656Z" fill="#7F7F7F"/>
<path d="M701.255 230.014C701.256 237.884 701.256 245.489 701.256 253.094C701.099 253.092 700.942 253.09 700.785 253.089C700.785 244.856 700.785 236.624 700.785 228.391C700.88 228.385 700.975 228.378 701.07 228.372C701.132 228.83 701.193 229.289 701.255 230.014Z" fill="#3F3F3F"/>
<path d="M675.468 199.755C675.508 198.984 675.549 198.491 675.589 197.997C675.693 198 675.797 198.003 675.901 198.006C675.901 205.775 675.901 213.544 675.901 221.312C675.757 221.314 675.612 221.316 675.467 221.318C675.467 214.223 675.467 207.127 675.468 199.755Z" fill="#BFBFBF"/>
<path d="M422.481 272.108C422.481 267.122 422.481 262.438 422.481 257.755C422.632 257.756 422.782 257.758 422.932 257.759C422.932 264.46 422.932 271.16 422.932 277.861C422.782 277.869 422.632 277.877 422.481 277.885C422.481 276.06 422.481 274.235 422.481 272.108Z" fill="#BFBFBF"/>
<path d="M806.871 274.47C806.871 275.769 806.871 276.779 806.871 277.789C806.729 277.79 806.588 277.79 806.446 277.79C806.446 271.09 806.446 264.389 806.446 257.688C806.588 257.684 806.729 257.68 806.871 257.676C806.871 263.178 806.871 268.68 806.871 274.47Z" fill="#7F7F7F"/>
<path d="M649.062 99.7259C649.062 102.049 649.062 104.069 649.062 106.089C648.922 106.089 648.783 106.089 648.644 106.089C648.644 99.4074 648.644 92.7256 648.644 86.0438C648.783 86.0394 648.922 86.0351 649.062 86.0307C649.062 90.4946 649.062 94.9585 649.062 99.7259Z" fill="#7F7F7F"/>
<path d="M1010.43 9.24309C1010.59 9.97494 1010.01 9.84955 1009.53 9.85022C1003.93 9.85817 998.333 9.85533 992.726 9.24607C998.538 9.24607 1004.35 9.24607 1010.43 9.24309Z" fill="#C0C0C0"/>
<path d="M1010.73 9.24578C1010.74 4.06574 1010.74 -1.13072 1010.74 -6.32718C1010.89 -6.32762 1011.04 -6.32805 1011.19 -6.32849C1011.19 -1.20785 1011.19 3.91279 1010.94 9.13678C1010.69 9.24012 1010.72 9.22935 1010.73 9.24578Z" fill="#7F7F7F"/>
<path d="M407.207 261.521C402.212 261.649 397.445 261.649 392.678 261.649C397.6 261.27 402.518 260.65 407.207 261.521Z" fill="#BFBFBF"/>
<path d="M628.688 89.2806C625.064 89.2806 621.73 89.2806 618.397 89.2806C618.398 89.1415 618.399 89.0024 618.4 88.8633C623.118 88.8633 627.836 88.8633 632.919 88.8633C631.402 89.5396 630.17 89.1665 628.688 89.2806Z" fill="#3F3F3F"/>
<path d="M111.206 9.85945C109.719 9.85951 108.518 9.85951 107.318 9.85951C107.317 9.72294 107.315 9.58637 107.314 9.4498C110.288 9.4498 113.261 9.4498 116.235 9.4498C116.245 9.58633 116.255 9.72286 116.266 9.85939C114.675 9.85939 113.084 9.85939 111.206 9.85945Z" fill="#BFBFBF"/>
<path d="M773.937 219.337C771.497 220.267 768.835 219.461 766.17 219.164C768.688 219.164 771.206 219.164 773.937 219.337Z" fill="#898989"/>
<path d="M712.834 219.214C714.118 219.214 715.122 219.214 716.126 219.214C716.127 219.356 716.128 219.498 716.129 219.641C713.51 219.641 710.892 219.641 708.273 219.641C708.267 219.498 708.262 219.356 708.257 219.214C709.689 219.214 711.121 219.214 712.834 219.214Z" fill="#898989"/>
<path d="M70.3313 9.85674C69.8668 9.83399 69.601 9.88677 69.4815 9.77798C68.8688 9.22037 69.5728 9.27756 69.7813 9.27525C71.986 9.25083 74.1912 9.26012 76.3988 9.85773C74.4651 9.85773 72.5313 9.85773 70.3313 9.85674Z" fill="#C0C0C0"/>
<path d="M770.499 261.674C768.828 261.674 767.43 261.674 766.033 261.674C768.285 260.933 770.536 260.984 772.939 261.232C772.184 261.894 771.448 261.59 770.499 261.674Z" fill="#BFBFBF"/>
<path d="M715.076 261.061C715.49 261.291 716.597 261.365 715.887 261.495C713.854 261.868 711.71 261.626 709.605 261.06C711.34 261.06 713.076 261.06 715.076 261.061Z" fill="#BFBFBF"/>
<path d="M516.5 9.85794C515.393 9.72085 514.48 10.1649 513.494 9.37807C515.898 9.37807 518.082 9.37807 520.265 9.37807C520.278 9.53802 520.292 9.69798 520.305 9.85794C519.128 9.85794 517.951 9.85794 516.5 9.85794Z" fill="#C0C0C0"/>
<path d="M1013.89 92.9749C1012.25 93.1577 1011.84 92.5618 1011.85 91.2401C1011.88 75.8876 1011.89 60.5349 1011.84 45.1825C1011.83 43.4628 1012.53 43.1525 1014.03 43.1857C1020.92 43.3387 1019.54 42.378 1019.58 48.5584C1019.66 62.0682 1019.5 75.5804 1019.69 89.088C1019.73 92.2922 1018.88 93.5504 1015.71 92.9877C1015.22 92.8999 1014.69 92.9753 1013.89 92.9749Z" fill="#010100"/>
<path d="M689.686 89.2078C689.686 87.8936 689.686 86.8749 689.686 85.8563C689.686 80.1331 689.685 80.1945 695.335 80.2891C696.979 80.3166 697.711 80.6654 697.614 82.4865C697.468 85.2291 697.493 87.9886 697.607 90.7343C697.674 92.3683 697.31 93.2493 695.477 92.9979C694.68 92.8884 693.834 92.8615 693.045 93.0009C690.139 93.5149 689.243 92.177 689.686 89.2078Z" fill="#050300"/>
<path d="M413.608 80.6625C413.608 68.9647 413.686 57.5738 413.549 46.1855C413.518 43.6766 414.32 43.0805 416.673 43.1555C421.344 43.3043 421.348 43.1791 421.348 47.8991C421.348 53.9532 421.348 60.0074 421.348 66.0615C421.348 74.0653 421.278 82.0701 421.395 90.0722C421.426 92.2147 421.113 93.1411 418.631 93.046C413.615 92.8539 413.609 93.0199 413.609 88.0506C413.609 85.6905 413.609 83.3304 413.608 80.6625Z" fill="#010100"/>
<path d="M937.44 43.1907C938.979 43.0842 939.258 43.8289 939.251 44.8986C939.232 47.8615 939.205 50.8254 939.26 53.7873C939.285 55.1149 938.746 55.4723 937.461 55.568C931.407 56.019 931.41 56.0631 931.41 50.1416C931.41 49.7329 931.41 49.3242 931.41 48.9155C931.41 43.1885 931.41 43.1885 937.44 43.1907Z" fill="#0C0800"/>
<path d="M152.931 225.799C153.034 227.32 152.922 228.099 151.251 228.204C145.206 228.583 145.211 228.664 145.211 222.732C145.211 221.713 145.362 220.666 145.183 219.679C144.604 216.475 145.986 215.722 148.981 215.927C152.917 216.196 152.931 215.993 152.931 220.005C152.931 221.84 152.931 223.675 152.931 225.799Z" fill="#0F0F0F"/>
<path d="M471.006 225.799C471.11 227.32 470.998 228.099 469.326 228.203C463.281 228.583 463.286 228.664 463.286 222.732C463.286 221.713 463.437 220.666 463.259 219.679C462.679 216.475 464.061 215.722 467.056 215.927C470.992 216.196 471.006 215.993 471.006 220.005C471.006 221.84 471.006 223.675 471.006 225.799Z" fill="#0F0F0F"/>
<path d="M228.407 215.993C231.678 215.45 232.949 216.47 232.518 219.683C232.223 221.886 232.407 224.162 232.481 226.402C232.525 227.742 231.98 228.089 230.699 228.185C224.738 228.634 224.741 228.677 224.741 222.727C224.741 221.606 224.886 220.461 224.713 219.368C224.271 216.57 225.366 215.483 228.407 215.993Z" fill="#0F0F0F"/>
<path d="M854.686 221.657C854.686 222.162 854.686 222.366 854.686 222.57C854.686 228.535 854.688 228.491 848.804 228.182C847.428 228.11 846.778 227.818 846.838 226.278C846.945 223.524 846.961 220.759 846.833 218.007C846.756 216.341 847.387 215.779 848.933 215.993C849.033 216.007 849.137 215.996 849.239 215.994C854.686 215.868 854.686 215.868 854.686 221.657Z" fill="#0F0F0F"/>
<path d="M933.985 227.53C931.921 228.521 929.875 227.958 927.867 228.126C926.482 228.243 926.492 227.31 926.498 226.329C926.516 223.47 926.558 220.61 926.481 217.753C926.446 216.471 926.789 216.043 928.16 215.963C934.09 215.618 934.088 215.56 934.086 221.438C934.085 223.378 934.076 225.318 933.985 227.53Z" fill="#060606"/>
<path d="M615.753 55.5131C609.143 55.5351 609.143 55.5351 609.143 49.1566C609.143 49.054 609.143 48.9514 609.143 48.8488C609.143 42.7733 609.711 42.2906 615.598 43.1846C616.391 43.3051 617.026 43.4212 617.023 44.3746C617.015 47.862 617.01 51.3497 616.936 54.8358C616.931 55.0642 616.354 55.2803 615.753 55.5131Z" fill="#080500"/>
<path d="M391.437 216.635C391.492 219.863 391.383 222.835 391.542 225.791C391.645 227.719 390.976 228.199 389.117 228.202C383.778 228.208 383.778 228.295 383.778 222.997C383.778 222.691 383.778 222.384 383.778 222.077C383.778 215.171 384.176 214.872 391.437 216.635Z" fill="#0F0F0F"/>
</g>
<defs>
<clipPath id="clip0_1_2">
<rect width="1093" height="314" fill="white"/>
</clipPath>
</defs>
</svg>
